<?xml version="1.0" standalone="no"?>
<!DOCTYPE svg PUBLIC "-//W3C//DTD SVG 20010904//EN"
 "http://www.w3.org/TR/2001/REC-SVG-20010904/DTD/svg10.dtd">
<svg version="1.0" xmlns="http://www.w3.org/2000/svg"
 width="200.000000pt" height="200.000000pt" viewBox="0 0 200.000000 200.000000"
 preserveAspectRatio="xMidYMid meet">

<g transform="translate(0.000000,200.000000) scale(0.100000,-0.100000)"
fill="#000000" stroke="none">
<path d="M852 1908 c-98 -13 -253 -70 -343 -124 -103 -61 -241 -191 -304 -286
-288 -429 -158 -1003 289 -1279 164 -101 341 -144 556 -136 156 5 262 32 394
98 243 121 432 353 482 589 39 190 -59 331 -266 381 -76 18 -276 15 -375 -6
-103 -21 -265 -75 -362 -120 -168 -78 -352 -222 -433 -340 l-34 -50 59 51
c160 137 348 236 555 290 130 34 335 57 440 50 231 -15 298 -89 238 -262 -34
-97 -86 -173 -188 -275 -98 -98 -193 -158 -320 -203 -119 -41 -287 -48 -411
-17 -265 67 -466 244 -562 494 -30 79 -32 87 -31 237 0 148 1 159 30 237 45
120 89 188 184 283 67 68 104 96 175 132 103 53 208 85 308 95 l67 6 0 83 0
84 -42 -1 c-24 -1 -71 -6 -106 -11z"/>
<path d="M1060 1525 c0 -373 1 -396 18 -391 78 22 139 39 150 42 9 3 12 65 12
269 0 187 3 265 11 265 25 0 134 -33 187 -56 173 -76 180 -156 22 -249 -53
-31 -25 -25 77 17 88 36 147 78 168 118 22 43 1 86 -74 148 -141 118 -341 206
-518 228 l-53 6 0 -397z"/>
<path d="M656 1528 c-18 -29 -43 -72 -55 -95 -12 -24 -26 -43 -31 -43 -5 0
-39 12 -75 26 -53 21 -68 24 -80 14 -29 -24 -15 -38 66 -65 65 -22 79 -30 74
-44 -14 -36 -45 -178 -45 -207 0 -17 -3 -45 -6 -61 l-6 -30 -116 1 -117 1 0
-25 0 -25 117 -3 116 -3 6 -37 c3 -20 8 -61 12 -90 5 -46 8 -51 21 -40 12 10
14 27 9 89 l-7 76 38 6 c21 4 72 7 113 7 58 0 82 5 105 20 l30 20 -144 0 -143
0 6 68 c8 81 35 224 44 234 4 3 50 -2 103 -12 53 -11 143 -23 200 -27 l103 -8
-3 -89 c-2 -62 0 -86 8 -82 7 5 10 71 9 204 -1 108 -4 153 -5 100 l-4 -98 -37
0 c-47 0 -206 26 -289 47 -46 11 -63 20 -63 32 0 9 20 56 44 104 24 48 42 87
40 87 -3 0 -19 -24 -38 -52z"/>
<path d="M1685 1446 c-24 -17 -15 -50 14 -54 39 -6 56 39 22 57 -13 7 -23 6
-36 -3z"/>
<path d="M1602 1393 c2 -10 10 -18 18 -18 22 0 18 29 -3 33 -14 3 -18 -1 -15
-15z"/>
<path d="M1537 1373 c-12 -11 -8 -23 8 -23 8 0 15 7 15 15 0 16 -12 20 -23 8z"/>
<path d="M1772 1368 c-19 -19 -14 -45 10 -62 19 -13 25 -14 43 -2 25 16 31 42
15 61 -15 18 -52 19 -68 3z"/>
<path d="M1657 1333 c-13 -13 -7 -42 12 -52 27 -15 56 9 47 37 -7 21 -44 31
-59 15z"/>
<path d="M1560 1291 c0 -24 13 -33 35 -25 23 9 14 38 -13 42 -16 3 -22 -2 -22
-17z"/>
<path d="M1484 1279 c-3 -6 -2 -15 4 -21 13 -13 32 -2 32 18 0 16 -26 19 -36
3z"/>
<path d="M1420 1250 c0 -5 5 -10 10 -10 6 0 10 5 10 10 0 6 -4 10 -10 10 -5 0
-10 -4 -10 -10z"/>
<path d="M1724 1225 c-9 -23 3 -45 24 -45 25 0 44 23 36 44 -8 20 -53 21 -60
1z"/>
<path d="M1570 1216 c0 -9 7 -16 16 -16 17 0 14 22 -4 28 -7 2 -12 -3 -12 -12z"/>
<path d="M1630 1216 c0 -15 24 -28 34 -19 13 14 5 33 -14 33 -11 0 -20 -6 -20
-14z"/>
<path d="M1521 886 c-11 -103 -45 -254 -60 -268 -4 -5 -47 1 -96 11 -50 11
-119 22 -155 26 -36 3 -89 8 -117 11 l-53 5 0 129 c0 126 0 128 -21 123 -21
-6 -22 -9 -16 -129 l6 -122 -87 -7 c-80 -5 -247 -29 -298 -41 -17 -4 -23 1
-30 26 -14 49 -36 30 -23 -20 3 -10 -17 -21 -66 -39 -38 -13 -72 -26 -74 -28
-3 -2 4 -13 15 -24 l21 -20 66 25 66 25 35 -62 c19 -34 47 -75 61 -92 l27 -30
-20 30 c-11 17 -34 58 -51 93 l-31 62 24 10 c49 18 293 60 353 60 9 0 13 -20
13 -68 0 -38 3 -111 8 -163 l7 -94 5 160 5 160 125 -2 c108 -1 273 -23 288
-37 7 -8 -25 -84 -64 -151 -20 -34 -25 -49 -13 -35 12 14 42 60 67 102 40 71
47 77 71 73 24 -5 25 -5 4 4 -28 13 -28 13 -2 86 43 124 65 315 36 315 -10 0
-17 -31 -26 -104z"/>
</g>
</svg>
