<?xml version="1.0" encoding="UTF-8"?>
<!DOCTYPE svg PUBLIC "-//W3C//DTD SVG 1.1//EN" "http://www.w3.org/Graphics/SVG/1.1/DTD/svg11.dtd">
<svg xmlns="http://www.w3.org/2000/svg" viewBox="0 0 531 626" style="shape-rendering:geometricPrecision; text-rendering:geometricPrecision; image-rendering:optimizeQuality; fill-rule:evenodd; clip-rule:evenodd"><g><path style="opacity:0.995" fill="#030303" d="M 16.5,1.5 C 35.7177,0.0686699 54.3844,2.56867 72.5,9C 83.1222,13.2984 91.6222,20.1317 98,29.5C 107.99,18.9186 120.156,12.0852 134.5,9C 150.975,5.25986 167.641,3.92652 184.5,5C 186.602,6.73276 186.935,8.73276 185.5,11C 160.448,20.3847 142.948,37.5514 133,62.5C 123.428,87.5975 118.928,113.598 119.5,140.5C 119.328,165.781 121.828,190.781 127,215.5C 129.354,226.043 134.187,235.21 141.5,243C 145.349,245.118 149.349,246.952 153.5,248.5C 154.767,250.371 154.767,252.204 153.5,254C 147.364,255.129 142.531,258.295 139,263.5C 127.889,279.821 120.889,297.821 118,317.5C 113.668,342.869 114.001,368.202 119,393.5C 125.034,417.87 139.868,434.37 163.5,443C 170.382,445.351 177.382,447.184 184.5,448.5C 181.517,417.56 171.017,389.56 153,364.5C 151.627,362.305 151.294,359.971 152,357.5C 171.585,334.448 183.252,307.782 187,277.5C 193.587,223.186 181.921,173.186 152,127.5C 146.139,119.793 139.806,112.46 133,105.5C 130.473,101.262 131.473,98.2623 136,96.5C 167.371,110.932 193.205,132.099 213.5,160C 225.127,157.512 236.794,154.845 248.5,152C 292.924,142.886 335.924,147.22 377.5,165C 398.578,175.409 416.745,189.576 432,207.5C 441.314,222.155 452.148,235.655 464.5,248C 468.994,251.414 473.66,254.581 478.5,257.5C 479.706,259.516 479.706,261.516 478.5,263.5C 470.591,268.904 463.424,275.237 457,282.5C 431.873,323.659 395.706,349.492 348.5,360C 389.886,362.231 426.552,376.231 458.5,402C 463.333,406.833 468.167,411.667 473,416.5C 483.667,431.167 494.333,445.833 505,460.5C 511.312,467.149 518.479,472.649 526.5,477C 529.016,479.854 528.683,482.521 525.5,485C 515.261,489.57 506.428,496.07 499,504.5C 486.624,521.215 473.124,537.049 458.5,552C 422.216,581.876 380.383,596.71 333,596.5C 287.866,594.966 244.866,584.633 204,565.5C 181.833,590.928 155.167,610.262 124,623.5C 120.303,622.074 119.637,619.74 122,616.5C 156.549,583.069 177.049,542.402 183.5,494.5C 149.008,492.729 118.175,481.396 91,460.5C 73.8098,475.667 53.6432,483.5 30.5,484C 22.8333,484.667 15.1667,484.667 7.5,484C 2.87409,483.423 1.87409,481.423 4.5,478C 32.1436,469.69 50.6436,451.857 60,424.5C 69.018,393.109 72.018,361.109 69,328.5C 68.1541,312.091 65.1541,296.091 60,280.5C 57.2056,271.071 52.039,263.238 44.5,257C 41.3949,255.132 38.0615,253.965 34.5,253.5C 34.3367,251.143 34.5034,248.81 35,246.5C 42.9852,244.504 49.3185,240.171 54,233.5C 64.8256,212.536 70.8256,190.203 72,166.5C 74.7856,137.637 73.4523,108.97 68,80.5C 63.9285,56.8527 53.4285,36.6861 36.5,20C 29.5003,14.9172 22.0003,10.7505 14,7.5C 13.4585,4.9175 14.2918,2.9175 16.5,1.5 Z M 289.5,193.5 C 320.179,193.503 348.845,201.003 375.5,216C 388.192,223.358 398.192,233.358 405.5,246C 400.978,250.864 395.312,253.864 388.5,255C 384.538,256.211 383.871,258.211 386.5,261C 392.094,261.916 397.094,264.083 401.5,267.5C 402.447,269.059 403.113,270.726 403.5,272.5C 396.77,284.732 387.437,294.565 375.5,302C 347.612,316.578 317.945,322.578 286.5,320C 270.751,319.209 255.418,316.376 240.5,311.5C 248.145,274.841 246.812,238.508 236.5,202.5C 253.88,197.02 271.547,194.02 289.5,193.5 Z M 273.5,363.5 C 273.167,364.167 272.833,364.833 272.5,365.5C 258.207,367.573 244.207,370.906 230.5,375.5C 228.91,370.973 227.243,366.473 225.5,362C 226.861,360.416 227.528,358.582 227.5,356.5C 242.631,360.133 257.964,362.466 273.5,363.5 Z M 309.5,409.5 C 347.724,405.845 383.724,413.012 417.5,431C 429.8,438.289 440.633,447.456 450,458.5C 452.31,463.727 450.81,467.56 445.5,470C 439.976,472.131 434.309,473.798 428.5,475C 426.473,476.396 426.14,478.062 427.5,480C 433.518,481.006 439.184,483.006 444.5,486C 449.368,489.552 450.202,493.718 447,498.5C 422.048,524.391 391.548,539.225 355.5,543C 310.879,547.876 268.879,539.543 229.5,518C 232.299,510.803 234.632,503.47 236.5,496C 256.732,495.271 276.399,498.271 295.5,505C 312.471,510.804 323.471,522.304 328.5,539.5C 332.17,540.349 334.003,538.682 334,534.5C 336.088,518.578 334.088,503.245 328,488.5C 325.404,484.069 322.238,480.069 318.5,476.5C 330.132,463.116 335.965,447.449 336,429.5C 336.806,423.916 336.639,418.416 335.5,413C 334.167,412.333 332.833,412.333 331.5,413C 321.413,434.07 304.747,446.403 281.5,450C 267.907,452.006 254.24,453.172 240.5,453.5C 240.175,444.577 240.175,435.743 240.5,427C 262.787,417.845 285.787,412.012 309.5,409.5 Z"/></g>
<g><path style="opacity:1" fill="#909090" d="M 273.5,363.5 C 278.375,363.848 278.041,364.515 272.5,365.5C 272.833,364.833 273.167,364.167 273.5,363.5 Z"/></g>
</svg>
