<svg xmlns="http://www.w3.org/2000/svg" width="1596" height="1595"><path fill="#004c88" fill-rule="evenodd" d="M708.6 5.2C861-12 1018.4 15.5 1155.4 84.8c174.1 87.3 314.5 239.9 385.5 421.4 61.7 155.1 71.2 329.9 29.3 491.4-43.3 166.3-142 317.7-277.1 424-120.1 96-268.8 156-422.1 169.5-189.6 18.3-385.4-34.9-539.1-147.5C185.1 1338.4 76.2 1181.7 29 1007.5-23.4 816.7-2.1 606.4 89.8 430.9 208.6 198.1 448.3 32.2 708.6 5.2m9.5 101.4C603.1 302.9 489.7 500.1 376 697.2c141.2.3 282.6 0 423.8.1-38.3 67-77.5 133.4-116.1 200.2-180.6-.1-361.4.2-542.1-.2C288.1 644 434.5 390.9 580.5 137.5 442.9 183.8 319.7 273 234.9 391c-85.2 117.4-134.1 262.1-131.7 407.5-1.8 164 60.8 326.6 167.6 450.5 104.9 122.9 254.1 208.1 413.7 233.7 12.9-11.2 18.8-28.1 27.7-42.3 104-181 208.4-362 312.8-542.9-76.5-.1-152.9.1-229.3-.1 37.9-66.8 76.6-133.2 114.8-199.8 180.9-.6 361.8 0 542.8-.4-37.9 67.1-76.9 133.3-114.9 200.3-64.7-.3-129.5.7-194.2-.7-115.9 198.1-229.5 397.7-343.8 596.8 135.5-1.8 270.6-42.2 382.9-118.4 143.5-95.4 249.5-245.6 290.7-412.9 35.4-140.8 24.1-292.8-31.6-426.8-58.6-143.1-166.6-265.1-300.9-341.7-127.1-73.3-277.7-103.5-423.4-87.2"/></svg>